<svg width="746" height="232" viewBox="0 0 746 232" fill="none" xmlns="http://www.w3.org/2000/svg">
<path d="M129.505 51.9724C134.545 51.9724 138.385 51.9724 138.385 46.6924C138.385 42.7324 137.185 36.3724 137.185 30.1324C137.185 26.1724 137.665 20.4124 137.665 19.3324C137.665 15.7324 135.865 13.5724 128.305 10.4524C122.545 8.17236 111.385 5.05236 99.9853 5.05236C91.7053 5.05236 77.3053 6.73236 65.1853 16.4524C53.7853 25.4524 49.5853 39.1324 49.5853 54.6124C49.5853 71.7724 54.8653 84.0124 64.2253 92.0524C73.5853 100.092 87.0253 103.812 103.225 103.812C109.105 103.812 131.905 102.492 134.545 96.2524C135.265 94.5724 136.585 85.5724 137.065 83.5324C137.545 81.4924 140.785 71.4124 140.785 69.0124C140.785 66.2524 138.505 64.8124 136.465 64.8124C133.825 64.8124 119.665 68.4124 109.825 68.4124C96.9853 68.4124 88.1053 65.5324 88.1053 51.2524C88.1053 45.8524 89.3053 35.8924 98.5453 35.8924C104.185 35.8924 106.345 39.3724 106.345 44.2924C106.345 49.9324 106.345 51.9724 114.985 51.9724H129.505ZM188.273 22.9324C162.593 22.9324 145.193 36.8524 145.193 63.4924C145.193 90.1324 162.473 104.172 188.273 104.172C214.073 104.172 231.353 90.4924 231.353 63.3724C231.353 37.3324 214.433 22.9324 188.393 22.9324H188.273ZM188.153 48.9724C195.113 48.9724 195.833 57.7324 195.833 62.8924C195.833 67.8124 195.353 76.9324 188.393 76.9324C181.673 76.9324 180.713 68.2924 180.713 63.3724C180.713 58.8124 181.673 48.9724 188.033 48.9724H188.153ZM283.913 24.9724C279.473 24.9724 275.153 26.2924 271.673 29.1724C269.633 30.8524 269.273 30.8524 268.553 30.8524C267.713 30.8524 267.593 30.4924 266.753 27.7324C266.033 25.2124 264.353 25.0924 263.393 25.0924C261.833 25.0924 259.673 25.9324 253.673 25.9324C251.873 25.9324 242.873 25.0924 240.833 25.0924C236.033 25.0924 235.913 29.1724 235.913 30.1324C235.913 31.6924 236.153 32.6524 237.953 35.1724C239.393 37.2124 239.513 38.1724 239.513 45.9724V81.1324C239.513 88.4524 239.273 89.7724 237.953 91.9324C236.153 94.8124 235.913 95.2924 235.913 96.9724C235.913 98.2924 236.393 102.012 240.833 102.012C244.073 102.012 250.073 101.172 257.753 101.172C265.073 101.172 271.073 102.012 273.833 102.012C278.033 102.012 278.633 98.4124 278.633 97.0924C278.633 95.2924 278.393 94.8124 276.593 91.9324C275.513 90.1324 275.033 89.4124 275.033 81.1324V74.8924C275.033 68.5324 273.953 66.7324 273.953 64.2124C273.953 60.3724 276.953 57.4924 280.793 57.4924C281.873 57.4924 285.713 58.0924 286.793 58.0924C289.793 58.0924 290.753 55.4524 290.753 54.0124C290.513 51.0124 290.033 48.1324 290.033 45.1324C290.033 36.6124 290.753 33.0124 290.753 30.2524C290.753 24.9724 286.433 24.9724 284.033 24.9724H283.913ZM342.982 90.1324C342.982 98.4124 342.982 102.012 348.382 102.012C352.102 102.012 356.422 101.172 360.382 101.172C366.622 101.172 373.342 102.012 375.622 102.012C379.702 102.012 380.422 98.5324 380.422 97.0924C380.422 95.2924 380.182 94.8124 378.382 91.9324C376.942 89.6524 376.822 88.6924 376.822 81.1324V53.5324C376.822 49.9324 376.702 39.0124 371.062 32.2924C365.902 26.1724 357.982 23.2924 350.062 23.2924C345.382 23.2924 338.782 23.8924 332.542 30.1324C330.142 32.5324 329.542 32.8924 328.822 32.8924C327.742 32.8924 327.622 31.8124 327.502 30.0124C327.262 28.0924 326.902 25.0924 323.062 25.0924C321.382 25.0924 316.342 25.9324 312.142 25.9324C307.942 25.9324 303.862 25.0924 299.662 25.0924C294.862 25.0924 294.742 28.9324 294.742 30.1324C294.742 31.9324 295.102 32.4124 296.782 35.1724C298.102 37.3324 298.342 38.1724 298.342 45.9724V81.1324C298.342 88.4524 298.102 89.7724 296.782 91.9324C294.982 94.8124 294.742 95.2924 294.742 96.9724C294.742 98.2924 295.222 102.012 299.662 102.012C303.022 102.012 310.222 101.172 315.622 101.172C322.582 101.172 328.462 102.012 330.982 102.012C334.942 102.012 335.782 98.7724 335.782 97.0924C335.782 95.1724 335.302 94.5724 333.742 91.9324C332.662 90.1324 332.182 89.4124 332.182 81.1324V59.6524C332.182 58.5724 331.822 56.8924 331.822 56.0524C331.822 52.9324 333.742 51.2524 337.102 51.2524C342.982 51.2524 342.982 56.0524 342.982 62.2924V90.1324ZM459.733 70.0924C464.053 70.0924 465.613 68.5324 465.613 62.1724C465.613 36.7324 451.213 23.2924 426.133 23.2924C396.133 23.2924 384.373 41.8924 384.373 63.7324C384.373 92.0524 403.213 103.812 429.493 103.812C439.333 103.812 449.053 102.252 452.533 101.412C456.733 100.452 457.933 99.2524 458.413 96.7324C459.133 93.1324 459.733 88.9324 460.693 85.8124C461.773 82.3324 462.613 79.6924 462.613 78.7324C462.613 77.5324 461.533 75.6124 459.133 75.6124C458.053 75.6124 454.213 76.5724 451.813 77.0524C444.493 78.4924 440.653 78.8524 434.773 78.8524C430.453 78.8524 419.893 78.1324 419.893 71.6524C419.893 70.0924 420.973 70.0924 423.613 70.0924H459.733ZM422.773 56.7724C419.653 56.7724 419.173 55.9324 419.173 54.2524C419.173 49.5724 422.413 46.2124 427.093 46.2124C431.893 46.2124 434.893 49.3324 434.893 54.1324C434.893 56.0524 434.053 56.7724 430.093 56.7724H422.773ZM473.771 81.1324C473.771 88.4524 473.531 89.7724 472.211 91.9324C470.411 94.8124 470.171 95.2924 470.171 96.9724C470.171 98.2924 470.651 102.012 475.091 102.012C478.451 102.012 485.531 101.172 491.051 101.172C498.011 101.172 503.891 102.012 506.411 102.012C510.371 102.012 511.211 98.7724 511.211 97.0924C511.211 95.1724 510.731 94.5724 509.171 91.9324C508.091 90.1324 507.611 89.4124 507.611 81.1324V13.6924C507.611 11.2924 507.611 6.85236 503.651 6.85236C502.091 6.85236 496.331 7.69236 490.451 7.69236C485.411 7.69236 480.491 6.85236 475.451 6.85236C473.531 6.85236 470.171 7.45236 470.171 11.8924C470.171 13.6924 470.411 14.1724 472.211 17.0524C473.531 19.2124 473.771 19.5724 473.771 27.7324V81.1324ZM537.94 0.972359C530.86 0.972359 518.5 2.17236 518.5 10.3324C518.5 17.7724 527.02 19.5724 537.94 19.5724C547.66 19.5724 557.26 18.2524 557.26 10.3324C557.26 1.81236 543.82 0.972359 538.06 0.972359H537.94ZM520.06 81.1324C520.06 88.4524 519.94 89.7724 518.5 91.9324C516.58 94.8124 516.46 95.2924 516.46 96.9724C516.46 98.1724 516.94 102.012 521.38 102.012C524.62 102.012 528.82 101.172 538.3 101.172C545.62 101.172 551.74 102.012 554.38 102.012C558.46 102.012 559.18 98.7724 559.18 97.0924C559.18 95.1724 558.7 94.5724 557.14 91.9324C556.06 90.1324 555.58 89.4124 555.58 81.1324V45.9724C555.58 37.6924 555.94 36.9724 557.14 35.1724C558.94 32.4124 559.18 31.9324 559.18 30.0124C559.18 28.3324 558.7 25.0924 554.14 25.0924C550.42 25.0924 545.26 26.5324 538.78 26.5324C530.98 26.5324 526.42 25.0924 521.38 25.0924C518.26 25.0924 516.46 27.0124 516.46 30.1324C516.46 31.9324 516.82 32.4124 518.5 35.1724C519.94 37.3324 520.06 38.4124 520.06 45.9724V81.1324ZM579.507 23.7724C574.587 23.7724 574.227 26.8924 573.987 29.1724C573.147 35.4124 572.907 37.2124 571.467 43.0924C571.107 44.7724 570.267 47.4124 570.267 48.4924C570.267 50.0524 571.947 52.3324 574.707 52.3324C575.667 52.3324 576.267 52.2124 582.027 50.5324C586.947 49.0924 594.987 48.0124 599.667 48.0124C606.867 48.0124 609.747 49.6924 609.747 53.0524C609.747 54.6124 609.267 55.5724 607.947 55.9324C606.747 56.2924 604.707 56.2924 601.707 56.4124C578.187 56.5324 564.507 63.1324 564.507 79.2124C564.507 89.4124 570.987 103.092 590.787 103.092C599.907 103.092 603.267 100.452 609.027 96.0124C609.867 95.2924 610.347 94.9324 611.067 94.9324C611.907 94.9324 612.027 95.6524 612.387 97.9324C612.747 100.092 613.587 102.012 616.587 102.012C618.147 102.012 624.987 101.172 628.107 101.172C632.667 101.172 638.787 102.012 641.667 102.012C645.867 102.012 646.587 98.5324 646.587 97.0924C646.587 95.2924 646.347 94.8124 644.547 91.9324C643.347 90.1324 642.987 89.4124 642.987 81.1324V54.8524C642.987 45.2524 642.987 38.8924 637.107 32.6524C632.067 27.2524 622.827 23.2924 608.787 23.2924C603.987 23.2924 595.947 23.6524 591.147 24.4924C590.427 24.6124 586.347 25.4524 585.507 25.4524C584.787 25.4524 584.067 25.0924 583.227 24.6124C582.387 24.1324 581.067 23.7724 579.627 23.7724H579.507ZM609.267 74.1724C609.267 76.9324 608.187 82.5724 601.947 82.5724C599.187 82.5724 595.107 81.1324 595.107 76.6924C595.107 70.0924 603.627 70.0924 605.907 70.0924C609.027 70.0924 609.267 71.5324 609.267 72.9724V74.1724ZM21.5536 128.972C14.4736 128.972 2.11359 130.172 2.11359 138.332C2.11359 145.772 10.6336 147.572 21.5536 147.572C31.2736 147.572 40.8736 146.252 40.8736 138.332C40.8736 129.812 27.4336 128.972 21.6736 128.972H21.5536ZM3.67359 209.132C3.67359 216.452 3.55359 217.772 2.11359 219.932C0.193594 222.812 0.073594 223.292 0.073594 224.972C0.073594 226.172 0.553594 230.012 4.99359 230.012C8.23359 230.012 12.4336 229.172 21.9136 229.172C29.2336 229.172 35.3536 230.012 37.9936 230.012C42.0736 230.012 42.7936 226.772 42.7936 225.092C42.7936 223.172 42.3136 222.572 40.7536 219.932C39.6736 218.132 39.1936 217.412 39.1936 209.132V173.972C39.1936 165.692 39.5536 164.972 40.7536 163.172C42.5536 160.412 42.7936 159.932 42.7936 158.012C42.7936 156.332 42.3136 153.092 37.7536 153.092C34.0336 153.092 28.8736 154.532 22.3936 154.532C14.5936 154.532 10.0336 153.092 4.99359 153.092C1.87359 153.092 0.073594 155.012 0.073594 158.132C0.073594 159.932 0.433594 160.412 2.11359 163.172C3.55359 165.332 3.67359 166.412 3.67359 173.972V209.132ZM48.6005 177.332C48.6005 185.132 51.3605 194.252 66.8405 198.572C74.5205 200.732 76.5605 201.452 76.5605 204.212C76.5605 206.852 74.1605 207.812 71.8805 207.812C63.3605 207.812 53.7605 201.452 51.0005 201.452C49.0805 201.452 47.0405 202.892 47.0405 205.412C47.0405 206.732 47.2805 207.692 49.2005 215.492C49.8005 217.772 49.8005 220.532 49.8005 222.212C49.8005 225.332 49.8005 230.492 54.7205 230.492C57.7205 230.492 58.8005 228.692 60.6005 228.692C61.8005 228.692 72.1205 231.812 83.1605 231.812C99.8405 231.812 117.36 225.332 117.36 205.772C117.36 201.092 116.16 194.852 110.76 190.412C105 185.732 97.8005 184.652 90.7205 182.852C88.8005 182.372 87.0005 181.652 87.0005 179.372C87.0005 176.372 90.1205 175.412 92.6405 175.412C99.0005 175.412 107.52 179.972 110.28 179.972C112.2 179.972 113.64 178.052 113.64 176.372C113.64 174.452 111.6 167.612 111.24 163.292C111.12 161.492 111.36 158.132 111.36 157.532C111.36 153.692 107.64 152.612 105.84 152.612C104.64 152.612 103.8 152.972 103.2 153.212C102.48 153.572 102 153.932 101.4 153.932C100.44 153.932 98.2805 153.212 95.0405 152.612C91.6805 151.892 87.2405 151.292 81.2405 151.292C64.5605 151.292 48.6005 158.852 48.6005 177.212V177.332ZM206.671 186.092C206.671 184.412 206.791 181.652 210.151 181.652C211.231 181.652 215.071 182.372 216.151 182.372C220.351 182.372 220.471 178.652 220.471 177.332C220.471 175.892 220.111 168.812 220.111 167.252C220.111 166.052 220.471 160.172 220.471 158.852C220.471 156.092 218.911 154.292 215.791 154.292C214.951 154.292 210.871 154.772 209.911 154.772C207.031 154.772 206.671 152.852 206.671 149.732V139.052C206.671 137.732 206.551 134.972 201.991 134.972C200.671 134.972 199.351 136.292 197.551 138.212C191.191 145.292 183.751 154.292 173.431 154.292C172.111 154.292 168.871 154.052 168.151 154.052C167.431 154.052 163.951 154.292 163.951 158.252C163.951 161.492 164.431 164.612 164.431 167.852C164.431 171.332 163.951 175.292 163.951 177.692C163.951 181.052 166.231 181.652 167.191 181.652C167.551 181.652 169.351 181.292 170.071 181.292C171.871 181.292 172.351 183.212 172.351 187.172C172.351 189.812 171.391 203.252 171.391 206.372C171.391 224.852 182.911 231.812 200.311 231.812C204.991 231.812 211.591 231.212 216.031 229.652C219.751 228.332 219.991 226.052 220.111 224.012C220.351 219.212 221.071 214.292 221.911 210.092C222.511 207.092 223.351 204.572 223.351 203.252C223.351 201.452 221.431 199.772 219.031 199.772C217.471 199.772 212.671 201.332 211.111 201.332C207.271 201.332 206.671 197.852 206.671 194.732V186.092ZM276.009 218.132C276.009 226.412 276.009 230.012 281.409 230.012C285.369 230.012 289.449 229.172 293.409 229.172C298.449 229.172 305.649 230.012 308.649 230.012C312.849 230.012 313.449 226.412 313.449 225.092C313.449 223.292 313.209 222.812 311.409 219.932C309.969 217.652 309.849 217.292 309.849 209.132V180.812C309.849 163.652 302.649 152.012 284.889 152.012C279.969 152.012 275.769 153.572 272.769 155.132C269.769 156.692 267.849 158.372 266.889 158.372C265.209 158.372 265.209 155.852 265.209 154.412V148.292C265.209 146.612 266.049 140.012 266.049 139.052C266.049 137.972 265.329 134.852 261.489 134.852C258.249 134.852 253.449 135.692 248.409 135.692C243.729 135.692 238.569 134.852 233.049 134.852C230.769 134.852 227.769 135.692 227.769 139.892C227.769 141.692 228.009 142.172 229.809 145.052C231.129 147.212 231.369 147.332 231.369 155.732V209.132C231.369 216.452 231.129 217.772 229.809 219.932C228.009 222.812 227.769 223.292 227.769 224.972C227.769 226.292 228.249 230.012 232.569 230.012C237.249 230.012 243.009 229.172 248.649 229.172C254.769 229.172 261.729 230.012 264.009 230.012C267.969 230.012 268.809 226.772 268.809 225.092C268.809 223.172 268.329 222.572 266.769 219.932C265.689 218.132 265.209 217.412 265.209 209.132V189.812C265.209 185.132 265.329 179.852 270.969 179.852C276.369 179.852 276.009 185.372 276.009 189.452V218.132ZM392.643 198.092C396.963 198.092 398.523 196.532 398.523 190.172C398.523 164.732 384.123 151.292 359.043 151.292C329.043 151.292 317.283 169.892 317.283 191.732C317.283 220.052 336.123 231.812 362.403 231.812C372.243 231.812 381.963 230.252 385.443 229.412C389.643 228.452 390.843 227.252 391.323 224.732C392.043 221.132 392.643 216.932 393.603 213.812C394.683 210.332 395.523 207.692 395.523 206.732C395.523 205.532 394.443 203.612 392.043 203.612C390.963 203.612 387.123 204.572 384.723 205.052C377.403 206.492 373.563 206.852 367.683 206.852C363.363 206.852 352.803 206.132 352.803 199.652C352.803 198.092 353.883 198.092 356.523 198.092H392.643ZM355.683 184.772C352.563 184.772 352.083 183.932 352.083 182.252C352.083 177.572 355.323 174.212 360.003 174.212C364.803 174.212 367.803 177.332 367.803 182.132C367.803 184.052 366.963 184.772 363.003 184.772H355.683ZM496.204 218.132C496.204 226.412 496.204 230.012 501.604 230.012C505.324 230.012 509.644 229.172 513.604 229.172C519.844 229.172 526.564 230.012 528.844 230.012C532.924 230.012 533.644 226.532 533.644 225.092C533.644 223.292 533.404 222.812 531.604 219.932C530.164 217.652 530.044 216.692 530.044 209.132V181.532C530.044 177.932 529.924 167.012 524.284 160.292C519.124 154.172 511.204 151.292 503.284 151.292C498.604 151.292 492.004 151.892 485.764 158.132C483.364 160.532 482.764 160.892 482.044 160.892C480.964 160.892 480.844 159.812 480.724 158.012C480.484 156.092 480.124 153.092 476.284 153.092C474.604 153.092 469.564 153.932 465.364 153.932C461.164 153.932 457.084 153.092 452.884 153.092C448.084 153.092 447.964 156.932 447.964 158.132C447.964 159.932 448.324 160.412 450.004 163.172C451.324 165.332 451.564 166.172 451.564 173.972V209.132C451.564 216.452 451.324 217.772 450.004 219.932C448.204 222.812 447.964 223.292 447.964 224.972C447.964 226.292 448.444 230.012 452.884 230.012C456.244 230.012 463.444 229.172 468.844 229.172C475.804 229.172 481.684 230.012 484.204 230.012C488.164 230.012 489.004 226.772 489.004 225.092C489.004 223.172 488.524 222.572 486.964 219.932C485.884 218.132 485.404 217.412 485.404 209.132V187.652C485.404 186.572 485.044 184.892 485.044 184.052C485.044 180.932 486.964 179.252 490.324 179.252C496.204 179.252 496.204 184.052 496.204 190.292V218.132ZM612.956 198.092C617.276 198.092 618.836 196.532 618.836 190.172C618.836 164.732 604.436 151.292 579.356 151.292C549.356 151.292 537.596 169.892 537.596 191.732C537.596 220.052 556.436 231.812 582.716 231.812C592.556 231.812 602.276 230.252 605.756 229.412C609.956 228.452 611.156 227.252 611.636 224.732C612.356 221.132 612.956 216.932 613.916 213.812C614.996 210.332 615.836 207.692 615.836 206.732C615.836 205.532 614.756 203.612 612.356 203.612C611.276 203.612 607.436 204.572 605.036 205.052C597.716 206.492 593.876 206.852 587.996 206.852C583.676 206.852 573.116 206.132 573.116 199.652C573.116 198.092 574.196 198.092 576.836 198.092H612.956ZM575.996 184.772C572.876 184.772 572.396 183.932 572.396 182.252C572.396 177.572 575.636 174.212 580.316 174.212C585.116 174.212 588.116 177.332 588.116 182.132C588.116 184.052 587.276 184.772 583.316 184.772H575.996ZM659.894 158.012C659.894 155.132 658.574 153.092 655.334 153.092C652.334 153.092 648.614 153.932 643.214 153.932C631.094 153.932 626.774 153.092 623.174 153.092C618.134 153.092 618.014 157.532 618.014 158.012C618.014 159.812 618.734 160.532 620.534 163.412C621.614 165.092 622.694 166.652 624.014 172.772C629.414 197.732 633.974 209.132 638.654 221.852C641.054 228.332 642.854 230.012 645.854 230.012C648.374 230.012 653.294 229.172 659.174 229.172C664.094 229.172 668.654 230.012 671.174 230.012C673.574 230.012 675.254 227.972 676.694 224.372C677.654 221.972 678.854 218.852 679.814 215.132C680.534 212.372 680.894 211.292 681.974 211.292C682.814 211.292 683.294 212.132 684.134 215.012C684.854 217.652 685.694 220.172 686.534 222.692C688.454 228.572 689.894 230.012 693.254 230.012C696.014 230.012 699.374 229.172 705.134 229.172C710.894 229.172 714.494 230.012 717.254 230.012C720.014 230.012 721.094 228.692 722.654 225.932C728.654 215.372 737.174 185.852 739.574 172.652C739.934 170.972 740.654 167.012 741.854 165.212C745.334 160.052 745.574 159.332 745.574 157.652C745.574 154.892 743.774 153.092 741.374 153.092C739.694 153.092 735.014 153.932 729.494 153.932C724.094 153.932 718.454 153.092 716.534 153.092C714.854 153.092 712.214 154.292 712.214 158.252C712.214 160.532 713.534 161.732 713.534 165.332C713.534 169.292 710.894 182.732 708.974 189.332C708.254 191.492 707.894 191.732 707.294 191.732C706.454 191.732 705.974 191.492 705.254 187.772C704.054 182.252 701.774 168.332 701.774 165.332C701.774 164.612 702.014 163.052 702.374 161.852C703.334 158.972 703.334 158.612 703.334 157.532C703.334 155.012 701.774 153.092 699.134 153.092C697.814 153.092 693.134 153.932 687.854 153.932C682.454 153.932 675.614 153.092 672.974 153.092C671.534 153.092 669.254 154.292 669.254 158.252C669.254 159.212 669.374 160.052 669.854 161.492C670.334 162.932 670.574 163.652 670.574 165.332C670.574 166.892 670.214 174.692 666.614 188.972C666.134 190.892 665.894 191.852 664.934 191.852C664.094 191.852 663.734 191.252 663.374 189.812C662.534 187.172 658.934 170.132 658.934 164.132C658.934 161.252 659.894 160.292 659.894 158.132V158.012Z" fill="#FFCCBC"/>
</svg>
